<svg width="16" height="13" viewBox="0 0 16 13" fill="none" xmlns="http://www.w3.org/2000/svg">
<path d="M8.49887 1.77311L8.4672 0.333374L7.47089 0.848187L7.44215 1.77915C3.56073 2.16268 0.5 6.50992 0.5 11.8198C0.5 12.1619 0.512615 12.4997 0.537844 12.8334H1.89708C1.88433 12.5893 1.87594 12.3434 1.87594 12.0946C1.87594 7.27828 4.30653 3.32528 7.40771 2.90228L7.12998 11.9486L8.70709 11.1763L8.52373 2.90406C11.6183 3.3368 14.042 7.28544 14.042 12.0947C14.042 12.3435 14.0337 12.5895 14.0209 12.8335H15.4624C15.4873 12.5002 15.4999 12.1623 15.5001 11.8199C15.4999 6.48302 12.4085 2.11806 8.49887 1.77311Z" fill="#1D2123"/>
</svg>
